<svg width="122" height="20" viewBox="0 0 122 20" fill="none" xmlns="http://www.w3.org/2000/svg">
<path d="M0.681261 19V0.812695H8.53997V3.52957H4.70043V8.11007H8.046V10.9168H4.70043V19H0.681261ZM10.4394 19V0.812695H14.4586V19H10.4394ZM18.8096 19V3.79901H16.0703V0.812695H25.5681V3.79901H22.8512V19H18.8096Z" fill="#6842FF"/>
<path d="M27.1693 19V0.812695H33.2767C34.3694 0.812695 35.2675 1.02226 35.9711 1.44139C36.6746 1.84555 37.1985 2.44431 37.5428 3.23767C37.8871 4.01606 38.0593 4.96659 38.0593 6.08926C38.0593 7.49634 37.8272 8.57411 37.3632 9.32256C36.8992 10.056 36.2705 10.565 35.4771 10.8494C34.6838 11.1338 33.7931 11.276 32.8051 11.276H31.1885V19H27.1693ZM31.1885 8.46933H32.5357C33.0297 8.46933 33.4039 8.37951 33.6584 8.19988C33.9129 8.02026 34.0775 7.75082 34.1524 7.39156C34.2422 7.03231 34.2871 6.57575 34.2871 6.0219C34.2871 5.55786 34.2497 5.1537 34.1748 4.80941C34.1149 4.45016 33.9578 4.16575 33.7033 3.95618C33.4488 3.74662 33.0521 3.64183 32.5133 3.64183H31.1885V8.46933ZM39.9967 19V0.812695H48.1698V3.55202H44.0159V8.06516H47.1819V10.8494H44.0159V16.2831H48.2147V19H39.9967ZM50.0394 19V0.812695H55.0465C56.274 0.812695 57.3368 0.947416 58.2349 1.21686C59.1331 1.4863 59.8291 1.97279 60.3231 2.67633C60.832 3.36491 61.0865 4.34537 61.0865 5.61774C61.0865 6.36619 61.0266 7.03231 60.9069 7.61609C60.7871 8.19988 60.5626 8.70883 60.2333 9.14293C59.9189 9.56206 59.4624 9.91383 58.8636 10.1982L61.356 19H57.2021L55.2037 10.8494H54.0586V19H50.0394ZM54.0586 8.53669H55.1812C55.7501 8.53669 56.1917 8.43939 56.506 8.24479C56.8204 8.03523 57.0374 7.74333 57.1572 7.36911C57.2919 6.97991 57.3592 6.51588 57.3592 5.97699C57.3592 5.19861 57.217 4.59236 56.9326 4.15826C56.6482 3.72416 56.1243 3.50711 55.3609 3.50711H54.0586V8.53669ZM68.2425 19.2694C67.1049 19.2694 66.1543 19.0674 65.3909 18.6632C64.6275 18.259 64.0512 17.6378 63.662 16.7996C63.2728 15.9463 63.0557 14.8461 63.0108 13.4989L66.4462 12.9825C66.4612 13.7609 66.5285 14.3896 66.6483 14.8686C66.783 15.3476 66.9626 15.6919 67.1872 15.9014C67.4267 16.111 67.7111 16.2158 68.0404 16.2158C68.4595 16.2158 68.729 16.0736 68.8487 15.7892C68.9835 15.5047 69.0508 15.2054 69.0508 14.891C69.0508 14.1426 68.8712 13.5139 68.5119 13.0049C68.1527 12.481 67.6662 11.9571 67.0525 11.4332L65.4807 10.0635C64.7921 9.47973 64.2084 8.8211 63.7294 8.08762C63.2653 7.33917 63.0333 6.41858 63.0333 5.32584C63.0333 3.78404 63.4898 2.60897 64.403 1.80065C65.3161 0.977355 66.5585 0.565708 68.1302 0.565708C69.1032 0.565708 69.8816 0.730367 70.4654 1.05968C71.0641 1.389 71.5132 1.8231 71.8126 2.36198C72.1269 2.8859 72.3365 3.44724 72.4413 4.04599C72.561 4.62978 72.6284 5.19112 72.6434 5.73L69.1855 6.15662C69.1706 5.61774 69.1332 5.1537 69.0733 4.76451C69.0284 4.36034 68.9236 4.05348 68.7589 3.84391C68.5943 3.61938 68.3398 3.50711 67.9955 3.50711C67.6213 3.50711 67.3444 3.66429 67.1647 3.97863C67.0001 4.29298 66.9177 4.60733 66.9177 4.92168C66.9177 5.59528 67.0749 6.14914 67.3893 6.58324C67.7186 7.00237 68.1452 7.44395 68.6691 7.90799L70.1735 9.23274C70.9669 9.90635 71.633 10.6698 72.1719 11.523C72.7257 12.3762 73.0026 13.4315 73.0026 14.6889C73.0026 15.5422 72.808 16.3206 72.4188 17.0241C72.0296 17.7127 71.4758 18.259 70.7573 18.6632C70.0537 19.0674 69.2155 19.2694 68.2425 19.2694ZM80.1579 19.2694C78.7957 19.2694 77.718 19.0299 76.9246 18.5509C76.1313 18.0719 75.5624 17.3834 75.2182 16.4852C74.8739 15.5871 74.7017 14.5168 74.7017 13.2744V6.51587C74.7017 5.25848 74.8739 4.1882 75.2182 3.30503C75.5624 2.42186 76.1313 1.74826 76.9246 1.28422C77.718 0.805212 78.7957 0.565708 80.1579 0.565708C81.5351 0.565708 82.6203 0.805212 83.4137 1.28422C84.222 1.74826 84.7983 2.42186 85.1426 3.30503C85.4869 4.1882 85.659 5.25848 85.659 6.51587V13.2744C85.659 14.5168 85.4869 15.5871 85.1426 16.4852C84.7983 17.3834 84.222 18.0719 83.4137 18.5509C82.6203 19.0299 81.5351 19.2694 80.1579 19.2694ZM80.1579 16.4179C80.5771 16.4179 80.8839 16.3131 81.0785 16.1035C81.2731 15.8939 81.4003 15.6245 81.4602 15.2952C81.5201 14.9659 81.55 14.6291 81.55 14.2848V5.52792C81.55 5.16867 81.5201 4.83187 81.4602 4.51752C81.4003 4.1882 81.2731 3.91876 81.0785 3.70919C80.8839 3.49963 80.5771 3.39484 80.1579 3.39484C79.7687 3.39484 79.4768 3.49963 79.2822 3.70919C79.0876 3.91876 78.9604 4.1882 78.9005 4.51752C78.8407 4.83187 78.8107 5.16867 78.8107 5.52792V14.2848C78.8107 14.6291 78.8332 14.9659 78.8781 15.2952C78.9379 15.6245 79.0577 15.8939 79.2373 16.1035C79.4319 16.3131 79.7388 16.4179 80.1579 16.4179ZM88.105 19V0.812695H90.9342L94.6614 9.56955V0.812695H97.9846V19H95.2677L91.5404 9.56955V19H88.105ZM99.8156 19L103.251 0.812695H107.831L111.222 19H107.517L106.911 15.1605H104.239L103.61 19H99.8156ZM104.598 12.7579H106.529L105.564 5.66264L104.598 12.7579ZM113.058 19V0.812695H117.077V16.2831H121.254V19H113.058Z" fill="white"/>
</svg>
